# xmcd
#
# Track frame offsets: 
#        150
#        13111
#        25789
#        39741
#        51779
#        62841
#        75365
#        87272
#        101145
#        114364
#        124858
#        136801
#        148592
#        160731
#        174359
#        187775
#        201459
#        213774
#        227829
#        240993
#        254409
#        267159
#        278178
#        289046
#        300215
#        311655
#
# Disc length: 4323 seconds
#
# Revision: 0
# Processed by: cddbd v1.5.2PL0 Copyright (c) Steve Scherf et al.
# Submitted via: ExactAudioCopy v1.0b3
#
DISCID=5f10e11a
DTITLE=Various Artist - R&B Years 1946 CD4
DYEAR=1946
DGENRE=R&B
TTITLE0=Lionel Hampton - Ridin' On The L&N
TTITLE1=Marion Abernathy - Goin' For The Okey-Doke
TTITLE2=Joe Liggins - Tanya
TTITLE3=Ivory Joe Hunter/Aurelia - Are You Hep?
TTITLE4=Big Joe Turner - Mad Blues
TTITLE5=Joe Liggins - Drippers Boogie P1. 1
TTITLE6=Joe Liggins - Drippers Boogie P1. 2
TTITLE7=Louis Jordan - Ain't Nobody Here But Us Chickens
TTITLE8=Jay McShann - Bucktown Boogie
TTITLE9=Myra Taylor - Tell Your Best Friend Nothin'
TTITLE10=Redd Foxx - Lucky Guy
TTITLE11=Jimmy Witherspoon, Jay McShann - Voodoo Woman Blues
TTITLE12=Jimmie Gordon - Rock That Boogie
TTITLE13=Blue Lu Barker - Don't You Feel My Leg
TTITLE14=Saunders King - Swingin'
TTITLE15=Walter Brown - Fine Brown Baby
TTITLE16=Big Three Trio - Signifyin' Monkey
TTITLE17=Jim Wynn - Wynn's Boogie
TTITLE18=T-Bone Walker - I'm Gonna Find My Baby
TTITLE19=Numa Lee Davis/Russell Jacquet - Wake Up Old Maid
TTITLE20=Roy Milton - Milton's Boogie
TTITLE21=Amos Milburn - Amos' Blues
TTITLE22=Johnny Crawford - Texas Woman
TTITLE23=Amos Milburn - My Baby's Boggyin'
TTITLE24=Red Calhoun - Here Comes The Man With The Gin
TTITLE25=Louis Jordan - Let The Good Times Roll
EXTD=
EXTT0=
EXTT1=
EXTT2=
EXTT3=
EXTT4=
EXTT5=
EXTT6=
EXTT7=
EXTT8=
EXTT9=
EXTT10=
EXTT11=
EXTT12=
EXTT13=
EXTT14=
EXTT15=
EXTT16=
EXTT17=
EXTT18=
EXTT19=
EXTT20=
EXTT21=
EXTT22=
EXTT23=
EXTT24=
EXTT25=
PLAYORDER=
